<?xml version="1.0" encoding="UTF-8"?>
<svg version="1.1" xmlns="http://www.w3.org/2000/svg" width="1080" height="1080">
<path d="M0 0 C356.4 0 712.8 0 1080 0 C1080 356.4 1080 712.8 1080 1080 C723.6 1080 367.2 1080 0 1080 C0 723.6 0 367.2 0 0 Z " fill="#FEFEFE" transform="translate(0,0)"/>
<path d="M0 0 C1.22162842 0.00789551 2.44325684 0.01579102 3.7019043 0.02392578 C15.0850373 0.12890759 26.45391773 0.41299959 37.8125 1.1875 C38.88395264 1.26025146 38.88395264 1.26025146 39.97705078 1.33447266 C53.10123022 2.34600104 68.03362379 5.84374943 77.8125 15.1875 C78.41449219 15.7134375 79.01648438 16.239375 79.63671875 16.78125 C91.47032178 27.72673272 100.56052804 42.45831178 108.8125 56.1875 C109.47894531 57.28578125 110.14539063 58.3840625 110.83203125 59.515625 C119.20694198 75.12787077 114.53319609 93.55410987 109.78515625 109.67578125 C104.48642146 124.81771732 95.04234821 138.00843175 84.8125 150.1875 C84.10577148 151.03054688 84.10577148 151.03054688 83.38476562 151.890625 C81.05891069 154.65753564 78.71937733 157.41227245 76.37109375 160.16015625 C74.0887962 162.86058465 71.87532208 165.59798227 69.6875 168.375 C59.91192923 180.61935035 50.81830733 190.51986545 34.8125 193.1875 C25.9025 193.1875 16.9925 193.1875 7.8125 193.1875 C7.8125 222.2275 7.8125 251.2675 7.8125 281.1875 C21.1775 280.6925 21.1775 280.6925 34.8125 280.1875 C39.82129614 280.10568963 44.81622364 280.04021017 49.82373047 280.04223633 C51.73417397 280.03719841 51.73417397 280.03719841 53.68321228 280.03205872 C57.06820992 280.02349143 60.45318216 280.02089345 63.8381896 280.02024293 C65.96390753 280.01951961 68.08961945 280.01736258 70.21533585 280.01474571 C77.6582097 280.00560284 85.10106602 280.00139911 92.54394531 280.00219727 C99.44893378 280.00280409 106.35384568 279.99210716 113.25881469 279.9764536 C119.23815997 279.96338718 125.21748001 279.95801257 131.19683945 279.95865268 C134.74740288 279.95890672 138.29789692 279.95610353 141.84844589 279.94547462 C145.7816449 279.9340084 149.7147362 279.93853463 153.64794922 279.94458008 C154.81250137 279.93896057 155.97705353 279.93334106 157.17689514 279.92755127 C158.24700333 279.93174576 159.31711151 279.93594025 160.41964722 279.94026184 C161.3460092 279.93971707 162.27237118 279.93917231 163.22680473 279.93861103 C166.12523027 280.2176022 168.23709341 280.82875852 170.8125 282.1875 C171.75 285.1875 171.75 285.1875 171.8125 288.1875 C165.05543065 294.94456935 148.50614123 292.31872266 139.37908936 292.32632446 C137.68501768 292.32451933 135.99094621 292.32250938 134.296875 292.3203125 C132.49586975 292.32132998 130.69486466 292.3226705 128.89385986 292.3243103 C124.10364558 292.32699085 119.31346409 292.32257751 114.52325439 292.31607056 C111.55733137 292.31249377 108.5914132 292.31088026 105.62548828 292.30981445 C73.01182341 292.29524722 40.41749411 291.96776208 7.8125 291.1875 C8.38594931 329.31089921 8.38594931 329.31089921 12.0546875 367.23046875 C12.16601517 368.03346405 12.27734283 368.83645935 12.39204407 369.66378784 C12.96693942 373.80228668 13.5587893 377.93715682 14.17749023 382.06933594 C15.43744247 390.81966896 15.84044126 398.58209559 14.93481445 407.39575195 C14.21680125 414.90556773 14.21680125 414.90556773 15.8125 422.1875 C21.18867985 428.34957564 29.00367312 431.39977232 36.34765625 434.61328125 C42.01973165 437.19033467 47.35338617 440.33490411 52.75 443.4375 C54.84758962 444.6105238 56.94651556 445.78116171 59.046875 446.94921875 C67.64977506 451.76341511 76.12202327 456.79084332 84.58642578 461.84326172 C86.58259997 463.03416295 88.57959756 464.22368503 90.57739258 465.41186523 C92.52580768 466.57084315 94.47235122 467.73297491 96.41674805 468.89868164 C97.30531494 469.4271167 98.19388184 469.95555176 99.109375 470.5 C99.89666992 470.97050781 100.68396484 471.44101562 101.49511719 471.92578125 C103.82733562 473.26696637 103.82733562 473.26696637 106.54785156 474.203125 C107.29518555 474.52796875 108.04251953 474.8528125 108.8125 475.1875 C109.75 477.625 109.75 477.625 109.8125 480.1875 C109.1525 481.1775 108.4925 482.1675 107.8125 483.1875 C102.02442385 482.71888114 98.09245926 481.67636625 92.9375 478.8125 C92.30094482 478.4609082 91.66438965 478.10931641 91.00854492 477.74707031 C82.00081283 472.70927163 73.26245203 467.1949069 64.49804688 461.74951172 C50.00107148 452.76954228 35.02726204 444.87890684 19.8125 437.1875 C18.94383301 436.74825195 18.07516602 436.30900391 17.18017578 435.85644531 C12.73400508 433.61361349 8.27598842 431.39569708 3.8125 429.1875 C1.144762 427.85629815 -1.52141014 426.52200181 -4.1875 425.1875 C-5.05170839 427.33755254 -5.91509426 429.48793074 -6.77758789 431.63867188 C-7.51405657 433.47501025 -8.25153733 435.31094302 -8.98999023 437.14648438 C-11.35490582 443.04166951 -11.35490582 443.04166951 -13.5859375 448.98828125 C-18.05924535 461.28237229 -24.19248773 470.74047707 -33.1875 480.1875 C-34.75342129 481.95530866 -36.31596943 483.72611144 -37.875 485.5 C-47.93981481 496.66948961 -47.93981481 496.66948961 -54.75 497.5 C-57.1875 497.1875 -57.1875 497.1875 -59 496 C-60.63130197 493.51011804 -60.60909934 492.12112876 -60.1875 489.1875 C-58.16796875 487.37109375 -58.16796875 487.37109375 -55.375 485.625 C-38.27976273 473.9063136 -25.82939732 454.6535388 -20.3125 434.8125 C-18.71021348 429.22877424 -16.4248605 424.25754546 -13.75 419.125 C-13.3782666 418.39812988 -13.0065332 417.67125977 -12.62353516 416.92236328 C-9.99954385 412.04171656 -7.26310142 408.72530071 -2.1875 406.1875 C4.34583333 405.95416667 4.34583333 405.95416667 6.8125 407.1875 C6.12130521 401.29730179 5.4274683 395.40742304 4.73120117 389.51782227 C4.4948004 387.51497786 4.25911672 385.51204869 4.02416992 383.5090332 C3.68597734 380.62688877 3.3451913 377.74506093 3.00390625 374.86328125 C2.89969864 373.97038895 2.79549103 373.07749664 2.68812561 372.157547 C2.20759339 368.11984267 1.61445917 364.17468745 0.8125 360.1875 C0.33829238 355.5303681 0.04995983 350.85871903 -0.25 346.1875 C-0.29485535 345.50196045 -0.33971069 344.8164209 -0.38592529 344.11010742 C-1.50932227 326.47891723 -1.3815088 308.84528541 -1.1875 291.1875 C-8.96144281 291.30583444 -16.73526296 291.43064377 -24.5090332 291.55981445 C-27.14996015 291.60294943 -29.79091115 291.6446382 -32.43188477 291.68481445 C-36.24242379 291.74304001 -40.05284411 291.80658002 -43.86328125 291.87109375 C-45.6155175 291.89616249 -45.6155175 291.89616249 -47.40315247 291.92173767 C-53.6100358 292.03223861 -59.74003302 292.33222097 -65.91665649 292.96347046 C-68.69746128 293.23781011 -71.45618722 293.354427 -74.25 293.375 C-75.14847656 293.38917969 -76.04695313 293.40335938 -76.97265625 293.41796875 C-79.1875 293.1875 -79.1875 293.1875 -81.1875 291.1875 C-81.73016266 286.08647102 -81.73016266 286.08647102 -80.18579102 283.52807617 C-77.01298912 281.39956607 -73.60144394 281.70552186 -69.90234375 281.67578125 C-69.06541489 281.65778473 -68.22848602 281.63978821 -67.36619568 281.62124634 C-64.61917843 281.56628926 -61.87236436 281.53276259 -59.125 281.5 C-57.23452103 281.46717734 -55.34405844 281.43339715 -53.45361328 281.39868164 C-36.36634382 281.10643094 -19.27657864 281.07701759 -2.1875 281.1875 C-2.21779297 280.415271 -2.24808594 279.64304199 -2.27929688 278.84741211 C-3.37586165 249.63028716 -3.29369079 220.42127089 -3.1875 191.1875 C-4.41855721 190.987864 -4.41855721 190.987864 -5.67448425 190.78419495 C-6.75281021 190.60734665 -7.83113617 190.43049835 -8.94213867 190.24829102 C-10.01034348 190.07395035 -11.07854828 189.89960968 -12.17912292 189.71998596 C-33.94168093 185.86798991 -50.9340361 172.98412656 -63.5012207 155.24072266 C-68.56916543 147.84849545 -72.74456778 140.45758168 -76.1875 132.1875 C-76.55278809 131.36121094 -76.91807617 130.53492188 -77.29443359 129.68359375 C-87.85414912 105.14397577 -85.39968383 78.09657889 -83 52.0625 C-82.89969482 50.9394043 -82.79938965 49.81630859 -82.69604492 48.65917969 C-81.03817449 33.95072226 -75.51223299 22.13673013 -64.13671875 12.66796875 C-60.59859862 9.98069915 -57.90335791 8.0349793 -53.375 8.4375 C-51.1875 9.1875 -51.1875 9.1875 -50.1875 10.1875 C-50.19981568 13.53326051 -50.31463779 16.13961821 -52.52197266 18.78955078 C-54.29367917 20.36206224 -56.11290218 21.81808156 -58 23.25 C-68.54533392 31.46391925 -70.82288052 39.80019102 -72.50830078 52.62939453 C-73.89548116 64.16431601 -74.39397114 75.72779361 -74.48403931 87.33886719 C-74.49955659 89.31843383 -74.52634607 91.29790207 -74.5534668 93.27734375 C-74.53993001 112.25837405 -67.53617162 132.91136877 -56.1875 148.1875 C-55.48753906 149.19039062 -54.78757812 150.19328125 -54.06640625 151.2265625 C-41.69255173 168.51135754 -26.44196153 176.58035777 -6.1875 181.1875 C-5.50929199 181.35121094 -4.83108398 181.51492188 -4.13232422 181.68359375 C12.34585464 185.6172256 29.0201227 185.86163786 45.0625 180 C53.50289365 174.43701327 59.61668455 167.06404227 65.8125 159.1875 C66.73622158 158.05040705 67.6620947 156.91505934 68.58984375 155.78125 C88.99909888 130.75743344 107.51043773 105.2972374 105.10742188 71.28417969 C104.29421624 65.50287999 101.05998375 60.88526565 97.8125 56.1875 C97.36229492 55.51686523 96.91208984 54.84623047 96.44824219 54.15527344 C83.31782127 34.64898079 71.60390821 17.77659272 47.8125 12.1875 C44.36265998 11.6060142 40.92471881 11.26815244 37.4375 11 C35.95213745 10.88265503 35.95213745 10.88265503 34.43676758 10.76293945 C25.28747036 10.13330301 16.13349328 9.95001545 6.965271 9.89096069 C5.33897494 9.8804317 3.71270038 9.86557263 2.08648682 9.84609985 C-12.04526884 9.6994444 -23.83366628 11.01583374 -35.1875 20.1875 C-37.86523616 23.06258377 -40.36068038 25.94925385 -42.80078125 29.02734375 C-45.1875 31.1875 -45.1875 31.1875 -48.35546875 31.69140625 C-49.29003906 31.52511719 -50.22460938 31.35882813 -51.1875 31.1875 C-53.1875 28.1875 -53.1875 28.1875 -53.1875 25.9375 C-50.61694855 18.86848352 -44.30378335 14.4580827 -38.25 10.4375 C-37.57259766 9.96957031 -36.89519531 9.50164062 -36.19726562 9.01953125 C-24.65970063 1.20982762 -13.66028116 -0.15347566 0 0 Z " fill="#232323" transform="translate(375.1875,306.8125)"/>
<path d="M0 0 C0.89847656 -0.01417969 1.79695312 -0.02835938 2.72265625 -0.04296875 C4.9375 0.1875 4.9375 0.1875 6.9375 2.1875 C7.1875 5.1875 7.1875 5.1875 6.9375 8.1875 C2.48855967 12.63644033 -4.94069434 12.67516705 -10.9375 13.25 C-11.76685059 13.33523926 -12.59620117 13.42047852 -13.45068359 13.50830078 C-18.16798197 13.97437309 -22.86669679 14.29164648 -27.60253906 14.4777832 C-37.93143732 14.89747029 -48.76886667 16.21659234 -58.20703125 20.671875 C-63.67799351 23.1231503 -69.75221659 23.63012155 -75.625 24.5625 C-84.40319306 26.03837978 -92.64076588 27.5762428 -100.90722656 30.92919922 C-113.66675259 36.01760816 -126.75312241 38.03159384 -140.25 40.1875 C-142.41514714 40.53994541 -144.5801858 40.89305786 -146.74511719 41.24682617 C-152.84873774 42.24083846 -158.95492049 43.2181368 -165.0625 44.1875 C-165.83458801 44.31014221 -166.60667603 44.43278442 -167.40216064 44.55914307 C-177.72636163 46.19601975 -188.06232827 47.7489727 -198.40380859 49.2722168 C-199.32242676 49.40926025 -200.24104492 49.54630371 -201.1875 49.6875 C-201.88711349 49.79106812 -202.58672699 49.89463623 -203.30754089 50.00134277 C-208.61680408 50.79576581 -213.90985052 51.66248256 -219.20088196 52.56991577 C-232.72148709 54.88057508 -246.27626562 56.77921486 -259.875 58.5625 C-264.4625085 59.16985655 -269.04963618 59.78006086 -273.63671875 60.390625 C-275.34504883 60.61753525 -275.34504883 60.61753525 -277.08789062 60.84902954 C-284.23621119 61.80130626 -291.37971297 62.78287271 -298.51953125 63.796875 C-299.41695541 63.92428574 -300.31437958 64.05169647 -301.23899841 64.18296814 C-303.01539107 64.43537327 -304.79177367 64.68784927 -306.56814575 64.94039917 C-323.9785149 67.41368541 -341.40942349 69.6171709 -358.87939453 71.62744141 C-359.72854431 71.72563675 -360.57769409 71.82383209 -361.45257568 71.92500305 C-363.03148197 72.10706407 -364.61061122 72.28720651 -366.19000244 72.4650116 C-369.04718585 72.79364045 -371.86552877 73.14701239 -374.68383789 73.72631836 C-377.56348564 74.28463249 -380.35451774 74.42069503 -383.28515625 74.546875 C-397.91200332 75.26820417 -412.26732438 76.48599025 -426.75 78.6875 C-441.25079158 80.88934693 -455.64646999 82.02704925 -470.29760742 82.64257812 C-471.0496344 82.67450256 -471.80166138 82.706427 -472.57647705 82.73931885 C-474.60729502 82.82244373 -476.63848162 82.896421 -478.66967773 82.96972656 C-481.91047529 83.09923398 -481.91047529 83.09923398 -484.43579102 83.67553711 C-505.15799314 87.71443086 -528.49541083 85.38549802 -549.5625 85.375 C-551.43532308 85.37505619 -553.30814616 85.37511727 -555.18096924 85.37518311 C-582.74151493 85.36801127 -610.28836673 85.0527125 -637.84066772 84.37561417 C-640.42848008 84.31271922 -643.0163495 84.25292655 -645.60424805 84.19369507 C-649.6596637 84.09966453 -653.71467515 83.99514706 -657.7695961 83.88180733 C-659.24763807 83.84147976 -660.72575759 83.80388202 -662.20394516 83.76930046 C-664.22522026 83.72094918 -666.24617736 83.65981784 -668.26708984 83.59814453 C-669.39335785 83.56705597 -670.51962585 83.53596741 -671.68002319 83.50393677 C-675.0625 83.1875 -675.0625 83.1875 -678.85276794 82.17701721 C-683.64783005 80.904148 -688.27661112 80.91429293 -693.21362305 80.94458008 C-694.20460558 80.94270439 -695.19558811 80.9408287 -696.21660042 80.93889618 C-699.502552 80.93524681 -702.78828622 80.94598668 -706.07421875 80.95703125 C-708.40850306 80.95788894 -710.74278777 80.95796881 -713.07707214 80.95732117 C-719.33676907 80.95847374 -725.59637071 80.97283148 -731.85604095 80.99026489 C-735.75504213 81.00001261 -739.65402891 81.0058375 -743.55303955 81.01025391 C-778.42308457 81.04984652 -813.28459873 81.29765226 -848.15039062 81.8269043 C-851.12499516 81.87191018 -854.09960399 81.91661214 -857.07421875 81.9609375 C-857.79041256 81.97161821 -858.50660637 81.98229893 -859.24450302 81.9933033 C-891.04951851 82.46108139 -922.88775329 82.61299653 -954.6875 81.8125 C-955.39280853 81.79721252 -956.09811707 81.78192505 -956.82479858 81.76617432 C-958.72983593 81.72220026 -960.63449071 81.66245018 -962.5390625 81.6015625 C-964.087146 81.55443115 -964.087146 81.55443115 -965.66650391 81.50634766 C-968.0625 81.1875 -968.0625 81.1875 -970.0625 79.1875 C-970.3125 76.1875 -970.3125 76.1875 -970.0625 73.1875 C-968.0625 71.1875 -968.0625 71.1875 -966.08337975 70.93861103 C-964.85528808 70.93942818 -964.85528808 70.93942818 -963.60238647 70.94026184 C-962.65950775 70.93606421 -961.71662903 70.93186657 -960.74517822 70.92754173 C-959.18207916 70.93597571 -959.18207916 70.93597571 -957.58740234 70.94458008 C-956.48689545 70.94271006 -955.38638855 70.94084003 -954.25253296 70.93891335 C-950.5511001 70.93523916 -946.84985397 70.94608763 -943.1484375 70.95703125 C-940.52137259 70.957804 -937.89430735 70.9577923 -935.26724243 70.95704651 C-928.88428834 70.95712201 -922.50140251 70.96860465 -916.11846983 70.98441488 C-910.91801145 70.99717071 -905.71755991 71.00597481 -900.51708984 71.01226807 C-758.04822697 71.18969811 -758.04822697 71.18969811 -704.68359375 72.69921875 C-703.88467964 72.72179811 -703.08576553 72.74437748 -702.26264191 72.76764107 C-698.26296697 72.88135311 -694.26334655 72.99691741 -690.26373291 73.11276245 C-652.12645119 74.21362577 -613.99619814 74.44253353 -575.84536582 74.48898584 C-570.37148301 74.49610669 -564.8976553 74.51063159 -559.42379761 74.52835083 C-529.34988175 74.62091882 -499.34392663 74.54202607 -469.30859375 72.80078125 C-467.69472464 72.70763358 -467.69472464 72.70763358 -466.04825211 72.61260414 C-440.37475912 71.32657831 -440.37475912 71.32657831 -415.17037964 66.68077087 C-413.09619605 66.19538531 -411.18552194 65.98405187 -409.0612793 65.86206055 C-408.27955856 65.81481842 -407.49783783 65.76757629 -406.69242859 65.71890259 C-405.84904434 65.67115692 -405.0056601 65.62341125 -404.13671875 65.57421875 C-402.3046501 65.46228032 -400.47262027 65.34970521 -398.640625 65.23657227 C-397.67962891 65.17801056 -396.71863281 65.11944885 -395.72851562 65.05911255 C-376.35818756 63.8617643 -357.26968951 62.00384993 -338.0625 59.1875 C-335.64854229 58.84041625 -333.23447952 58.49406238 -330.8203125 58.1484375 C-327.27824128 57.64080815 -323.73636793 57.13210266 -320.1953125 56.61743164 C-312.66218768 55.52972974 -305.12270381 54.56592368 -297.5625 53.6875 C-288.41882197 52.62318764 -279.30094969 51.42348624 -270.1875 50.125 C-268.46756836 49.88136719 -268.46756836 49.88136719 -266.71289062 49.6328125 C-261.73335814 48.91435796 -256.77557536 48.15452067 -251.83203125 47.21875 C-244.13904325 45.78589267 -236.37730816 44.80073279 -228.625 43.75 C-208.40892076 40.99946879 -188.25737212 37.93280319 -168.125 34.625 C-164.42851807 34.01871913 -160.73189581 33.41330174 -157.03515625 32.80859375 C-156.15735001 32.66487839 -155.27954376 32.52116302 -154.37513733 32.37309265 C-149.53496154 31.58299426 -144.6923152 30.81543507 -139.84375 30.078125 C-126.58474783 28.05346694 -114.04777756 25.42573724 -101.44555664 20.76611328 C-92.30364819 17.43375474 -82.95919063 15.40574754 -73.38671875 13.71484375 C-68.79664524 12.89830218 -64.53797322 11.68444391 -60.12475586 10.16235352 C-50.74741908 6.96924707 -41.32614402 4.96692457 -31.5625 3.375 C-30.29889648 3.16834717 -29.03529297 2.96169434 -27.73339844 2.7487793 C-18.54014693 1.30649854 -9.3203379 0.06863283 0 0 Z " fill="#252525" transform="translate(1016.0625,764.8125)"/>
<path d="M0 0 C1.65351886 3.01524027 0.61453192 5.64434408 0.0625 8.9375 C-7.88518338 12.39456407 -15.68511759 15.24346792 -24.125 17.25 C-32.18241441 19.19355899 -39.45552602 22.12626866 -46.9128418 25.7277832 C-52.47432627 28.39745814 -57.99388493 30.30098453 -63.9375 31.9375 C-65.27119637 32.32818993 -66.60455199 32.72004568 -67.9375 33.11328125 C-79.95285974 36.55825503 -92.08949594 39.41012787 -104.28857422 42.12402344 C-106.75497372 42.67387244 -109.22012147 43.22936199 -111.68408203 43.79003906 C-141.72307933 50.60756222 -171.98943412 55.09685187 -202.61499023 58.30358887 C-211.99616582 59.29233339 -221.17286073 60.46793107 -230.33454609 62.77935314 C-231.06514008 62.96284199 -231.79573407 63.14633084 -232.54846728 63.33537996 C-234.15756564 63.74092918 -235.76562955 64.15060249 -237.37269151 64.56414759 C-252.41429787 68.37698118 -266.50502906 69.65503144 -281.98364258 69.56518555 C-284.28965326 69.570381 -286.59565983 69.57779377 -288.9016571 69.58721924 C-293.81829077 69.60263836 -298.73458293 69.6027176 -303.65122414 69.59021568 C-311.45245643 69.57045346 -319.25339303 69.58600591 -327.05461121 69.60566711 C-338.01274808 69.63041492 -348.97079334 69.63787522 -359.92895508 69.63208008 C-371.13762396 69.62622395 -382.34626377 69.62514355 -393.55493164 69.6340332 C-394.59017438 69.63484706 -394.59017438 69.63484706 -395.64633111 69.63567736 C-403.21389804 69.64186941 -410.78145776 69.65064822 -418.34901714 69.66302967 C-419.01799191 69.66412216 -419.68696667 69.66521464 -420.3762134 69.66634024 C-423.71640062 69.67185766 -427.05658713 69.67762646 -430.39677352 69.68364173 C-438.12442944 69.6965813 -445.85197227 69.69805081 -453.57963336 69.6895088 C-458.41773421 69.68583975 -463.25580713 69.69023423 -468.0939045 69.6963501 C-470.30672056 69.69741971 -472.51954166 69.6951675 -474.7323494 69.6890049 C-488.71004458 69.65200238 -502.49884221 70.29608902 -516.42542553 71.50841999 C-528.0603412 72.47511346 -528.0603412 72.47511346 -530.875 70.75 C-532.31544659 68.29276759 -532.3680182 66.73586832 -531.9375 63.9375 C-528.86025635 61.88600424 -528.05559925 61.66740592 -524.55012798 61.53175259 C-523.65361708 61.49285518 -522.75710617 61.45395777 -521.83342826 61.41388166 C-520.85349627 61.38142776 -519.87356428 61.34897385 -518.86393738 61.3155365 C-517.83303895 61.27473327 -516.80214052 61.23393005 -515.74000275 61.19189036 C-512.31810562 61.06077934 -508.89591227 60.94529758 -505.47338867 60.83178711 C-504.28981919 60.78988373 -503.1062497 60.74798034 -501.88681448 60.70480716 C-477.17105592 59.83442066 -452.47035636 59.63873199 -427.74163461 59.63157773 C-421.91401221 59.62696946 -416.08643165 59.60889603 -410.25883484 59.59178162 C-391.8373771 59.54000079 -373.4158972 59.50852971 -354.99438208 59.485856 C-342.76876023 59.47069036 -330.54321994 59.4469818 -318.3176505 59.40745777 C-311.44243195 59.385913 -304.56737489 59.37760045 -297.69212496 59.37985051 C-293.42143562 59.37817156 -289.15085083 59.36405545 -284.88019943 59.34663773 C-282.92201569 59.34109496 -280.96380978 59.34049973 -279.00562477 59.34557533 C-264.1021233 59.38013006 -249.98842554 58.03840114 -235.625 53.9375 C-229.91373813 52.34407938 -224.30601172 51.28741801 -218.43359375 50.484375 C-217.52441193 50.35722107 -216.6152301 50.23006714 -215.67849731 50.09906006 C-207.94574403 49.03596603 -200.19748507 48.12735567 -192.44296265 47.23988342 C-169.68320163 44.63340667 -147.2872168 41.4344185 -124.93688965 36.38861084 C-122.90574718 35.93033579 -120.87341748 35.47765439 -118.84082031 35.02587891 C-104.09008805 31.73645957 -89.45089208 28.15392889 -74.9375 23.9375 C-73.70386719 23.60105469 -72.47023438 23.26460937 -71.19921875 22.91796875 C-70.01972656 22.59441406 -68.84023438 22.27085937 -67.625 21.9375 C-66.63886719 21.669375 -65.65273438 21.40125 -64.63671875 21.125 C-53.06729752 17.41105697 -42.0623498 12.38909936 -31.04296875 7.31054688 C-6.73553803 -3.69368214 -6.73553803 -3.69368214 0 0 Z " fill="#232323" transform="translate(931.9375,610.0625)"/>
<path d="M0 0 C1.03447266 -0.03673828 1.03447266 -0.03673828 2.08984375 -0.07421875 C5.72539188 -0.09507275 7.73142376 0.28422032 10.828125 2.2421875 C12.875 4.375 12.875 4.375 13.5 6.875 C12.57320321 10.58218718 11.14496368 11.41137859 7.875 13.375 C4.4180355 13.86679841 0.98626644 13.78254046 -2.5 13.75 C-11.29417698 13.88901005 -17.11026481 15.17723717 -25.078125 18.88671875 C-31.89164286 21.71865303 -39.53463851 21.91990169 -46.796875 22.734375 C-52.75496428 23.40832958 -58.36528344 24.73720305 -64.125 26.375 C-66.74816833 27.05045906 -69.37206682 27.71871455 -72 28.375 C-72.67683838 28.54418945 -73.35367676 28.71337891 -74.05102539 28.88769531 C-90.24707112 32.90621939 -105.29466495 34.58289216 -121.9375 34.5625 C-122.85828339 34.56189575 -123.77906677 34.5612915 -124.72775269 34.56066895 C-171.27412644 34.48111327 -218.08060653 34.07543136 -264.5 30.4375 C-265.5331131 30.35818237 -266.5662262 30.27886475 -267.63064575 30.19714355 C-297.95254346 27.80490524 -297.95254346 27.80490524 -303.00146484 23.93774414 C-304.62356755 21.68153393 -304.47185579 20.08047519 -304.125 17.375 C-302.125 15.375 -302.125 15.375 -299.83740234 15.09619141 C-288.11987786 15.11715981 -276.59094427 16.67327817 -264.97558594 18.08789062 C-237.08879039 21.45676526 -209.12415779 22.70096399 -181.0625 23.5 C-179.63278186 23.54143858 -178.20306384 23.58288151 -176.77334595 23.62432861 C-159.09407448 24.13202326 -141.41001705 24.60451377 -123.72341919 24.72747803 C-121.81309895 24.7422583 -119.90281518 24.76340885 -117.99264526 24.79156494 C-108.41231971 24.92198844 -100.0205379 24.73799692 -90.91137695 21.33447266 C-87.81887358 20.26958715 -84.86407675 19.79351374 -81.625 19.375 C-73.66467477 18.28599667 -65.98429386 16.20308656 -58.7109375 12.7578125 C-54.72231028 11.21971442 -51.8813288 11.14068038 -47.625 11.1875 C-36.90808531 10.97306479 -27.46743374 7.00626769 -17.55322266 3.27246094 C-11.57075474 1.06136582 -6.32220134 0.01195123 0 0 Z " fill="#232323" transform="translate(316.125,665.625)"/>
<path d="M0 0 C2 2 2 2 2.5 4.875 C2 8 2 8 -0.30859375 9.921875 C-5.04439592 12.84984223 -10.33439704 14.53955987 -15.5625 16.375 C-16.66352051 16.7663916 -17.76454102 17.1577832 -18.89892578 17.56103516 C-28.46016627 20.91042669 -38.11531663 23.79474126 -47.89550781 26.42724609 C-49.65243485 26.90540744 -51.40155914 27.41212099 -53.1484375 27.92578125 C-68.20907952 32.33542869 -85.30624453 35.34583077 -101 34 C-103 32 -103 32 -103.3125 29 C-103.209375 28.01 -103.10625 27.02 -103 26 C-100.13508419 24.09005613 -99.12444932 23.68370625 -95.88671875 23.25390625 C-95.06220215 23.14071045 -94.23768555 23.02751465 -93.38818359 22.91088867 C-92.49695801 22.79592041 -91.60573242 22.68095215 -90.6875 22.5625 C-89.75760254 22.43399658 -88.82770508 22.30549316 -87.86962891 22.1730957 C-83.04757218 21.51142706 -78.22247726 20.90388073 -73.38671875 20.3515625 C-53.71737295 18.03731711 -36.65370184 11.65948909 -18.38671875 4.171875 C-6.83850043 -0.52603849 -6.83850043 -0.52603849 0 0 Z " fill="#232323" transform="translate(445,415)"/>
<path d="M0 0 C2.9375 0.75 2.9375 0.75 4.9375 1.75 C5.30673077 7.16538462 5.30673077 7.16538462 3.4375 10.125 C2.9425 10.66125 2.4475 11.1975 1.9375 11.75 C-0.7260969 11.39005447 -2.64433452 11.03838998 -4.875 9.5 C-6.51614719 7.0814673 -6.49217368 5.61449123 -6.0625 2.75 C-4.2741948 -0.23050867 -3.49756733 -0.2855157 0 0 Z " fill="#262626" transform="translate(416.0625,383.25)"/>
<path d="M0 0 C6.75 0.75 6.75 0.75 9 3 C8.67582137 6.80909895 8.14418558 8.78372163 6 12 C3.16818902 12.43566323 1.63936422 12.39684676 -0.8125 10.875 C-2.53501881 8.15523346 -2.32855599 6.15413751 -2 3 C-1.34 2.01 -0.68 1.02 0 0 Z " fill="#282828" transform="translate(366,383)"/>
</svg>
